# xmcd
#
# Track frame offsets: 
#        150
#        19412
#        40458
#        63896
#        81981
#        104771
#        122753
#        141203
#        157178
#        178945
#        201685
#        221612
#        240288
#        259682
#        275200
#        295632
#        309398
#        332448
#
# Disc length: 4709 seconds
#
# Revision: 0
# Processed by: cddbd v1.5.2PL0 Copyright (c) Steve Scherf et al.
# Submitted via: ExactAudioCopy v0.95a5
#
DISCID=1c126312
DTITLE=杨坤 - 那一天
DYEAR=1900
DGENRE=Blues
TTITLE0=慢慢走吧
TTITLE1=脆弱
TTITLE2=月亮可以代表我的心
TTITLE3=some day
TTITLE4=那一天
TTITLE5=替身
TTITLE6=大导演
TTITLE7=123站起来
TTITLE8=爱简单
TTITLE9=燕尾服
TTITLE10=无所谓
TTITLE11=握紧我的手
TTITLE12=飞船
TTITLE13=美丽的一天
TTITLE14=里约热内卢
TTITLE15=i believe
TTITLE16=为了爱情
TTITLE17=两个人的世界
EXTD=
EXTT0=
EXTT1=
EXTT2=
EXTT3=
EXTT4=
EXTT5=
EXTT6=
EXTT7=
EXTT8=
EXTT9=
EXTT10=
EXTT11=
EXTT12=
EXTT13=
EXTT14=
EXTT15=
EXTT16=
EXTT17=
PLAYORDER=
